<svg width="95" height="85" viewBox="0 0 95 85" fill="none" xmlns="http://www.w3.org/2000/svg">
<path d="M16.7083 70.375H53.2083C56.4351 70.375 59.5298 69.0932 61.8115 66.8115C64.0932 64.5298 65.375 61.4351 65.375 58.2083V21.7083C65.375 20.0949 64.7341 18.5476 63.5932 17.4068C62.4524 16.2659 60.9051 15.625 59.2917 15.625H28.875C27.2616 15.625 25.7143 16.2659 24.5734 17.4068C23.4326 18.5476 22.7917 20.0949 22.7917 21.7083V61.25C22.7917 66.29 21.7484 70.375 16.7083 70.375Z" stroke="black" stroke-linecap="round" stroke-linejoin="round"/>
<path d="M10.625 36.9167C10.625 35.3033 11.2659 33.7559 12.4068 32.6151C13.5476 31.4743 15.0949 30.8333 16.7083 30.8333H22.7917V62.7708C22.7917 66.9683 20.9058 70.375 16.7083 70.375C12.5108 70.375 10.625 66.9683 10.625 62.7708V36.9167Z" stroke="black" stroke-linecap="round" stroke-linejoin="round"/>
<path d="M38 33.875C39.6799 33.875 41.0417 32.5132 41.0417 30.8333C41.0417 29.1535 39.6799 27.7917 38 27.7917C36.3201 27.7917 34.9583 29.1535 34.9583 30.8333C34.9583 32.5132 36.3201 33.875 38 33.875Z" stroke="black" stroke-linecap="round"/>
<path d="M34.9583 49.0833H53.2083" stroke="black" stroke-linecap="round"/>
<path d="M34.9583 58.2083H44.0833" stroke="black" stroke-linecap="round"/>
<path fill-rule="evenodd" clip-rule="evenodd" d="M10.5 0C4.70101 0 0 4.70101 0 10.5V74.5C0 80.299 4.70101 85 10.5 85H65.5C71.299 85 76 80.299 76 74.5V58.5H75V74.5C75 79.7467 70.7467 84 65.5 84H10.5C5.25329 84 1 79.7467 1 74.5V10.5C1 5.2533 5.2533 1 10.5 1H65.5C70.7467 1 75 5.25329 75 10.5V33.5H76V10.5C76 4.70101 71.299 0 65.5 0H10.5Z" fill="black"/>
<circle cx="75.5" cy="45.5" r="5.5" fill="#0093B4"/>
<circle cx="86.5" cy="45.5" r="3.5" fill="#0093B4"/>
<circle cx="93.5" cy="45.5" r="1.5" fill="#0093B4"/>
</svg>
